#!OML:ASF H:\IndianDance\Patient Classification 1\Patient 1\Session 1\dancer.ASF
:FULLY-SPECIFIED
:DEGREES
2148
root 3.56524 15.0605 11.5194 -173.339 -33.7111 -181.347
lowerback 7.69318 1.50014 -7.81795
upperback -7.53506 -0.775543 -7.72197
thorax -12.7483 -0.486201 -3.92523
lowerneck -21.5218 5.80772 4.28012
upperneck 23.1682 2.24678 13.1591
head 11.0947 2.79318 4.43314
rclavicle 1.47101e-014 1.04958e-013
rhumerus 2.76448 -13.6143 2.54249
rradius 28.6275
rwrist -10.606
rhand 28.4614 -15.2385
rfingers 7.12502
rthumb 52.3185 -35.1531
lclavicle 1.47101e-014 1.04958e-013
lhumerus 16.09 -18.7245 39.2685
lradius 46.9888
lwrist -11.267
lhand -67.1069 -29.6168
lfingers 7.12502
lthumb -38.8877 355.935
rfemur -37.4762 -13.6387 30.1071
rtibia 61.1098
rfoot -16.7169 -8.88552
rtoes 7.39176
lfemur -26.8189 26.9253 -14.6543
ltibia 60.1346
lfoot -1.53597 -3.34863
ltoes -30.5089
2149
root 3.54654 15.0574 11.4616 -173.451 -33.0169 -181.245
lowerback 7.7522 1.43047 -7.84254
upperback -7.50994 -0.881871 -7.70713
thorax -12.7567 -0.535455 -3.87448
lowerneck -21.526 5.83817 4.31556
upperneck 23.07 2.24457 13.2687
head 11.0605 2.8004 4.46189
rclavicle 4.57205e-014 -1.27222e-013
rhumerus 2.67802 -13.1902 2.41071
rradius 28.8789
rwrist -10.9764
rhand 28.484 -15.079
rfingers 7.12502
rthumb 52.339 -34.9811
lclavicle 4.57205e-014 -1.27222e-013
lhumerus 15.9412 -18.6815 39.5104
lradius 47.2346
lwrist -11.1828
lhand -67.4993 -28.3521
lfingers 7.12502
lthumb -39.2575 357.094
rfemur -37.6567 -13.3352 30.2858
rtibia 58.7736
rfoot -17.0917 -9.73271
rtoes 7.37677
lfemur -26.4353 26.9865 -14.344
ltibia 60.261
lfoot -1.21018 -3.08841
ltoes -29.9572
2150
root 3.52566 15.0637 11.4006 -173.555 -32.3161 -181.201
lowerback 7.76739 1.34893 -7.81615
upperback -7.45914 -0.990992 -7.71509
thorax -12.7078 -0.59288 -3.87378
lowerneck -21.3647 5.84611 4.19589
upperneck 22.7938 2.29172 13.445
head 10.9187 2.8146 4.52975
rclavicle -2.62396e-014 -5.08889e-014
rhumerus 2.56219 -12.7184 2.32519
rradius 29.1512
rwrist -11.4242
rhand 28.729 -14.834
rfingers 7.12502
rthumb 52.5607 -34.6006
lclavicle -2.62396e-014 -5.08889e-014
lhumerus 15.9406 -19.0618 39.3045
lradius 47.5701
lwrist -10.0561
lhand -67.5772 -25.4425
lfingers 7.12502
lthumb -39.3309 359.982
rfemur -37.6272 -13.079 30.3623
rtibia 56.061
rfoot -17.2288 -10.1997
rtoes 6.58295
lfemur -26.014 26.8037 -14.1158
ltibia 60.4013
lfoot -0.791095 -2.68917
ltoes -29.5355
2151
root 3.5078 15.0619 11.3367 -173.725 -31.6408 -181.037
lowerback 7.77746 1.25894 -7.73762
upperback -7.39854 -1.0983 -7.71589
thorax -12.6433 -0.652447 -3.89379
lowerneck -21.2614 5.85241 4.41857
upperneck 22.5764 2.27657 13.3537
head 10.8273 2.80169 4.4402
rclavicle 8.74653e-015 -1.39944e-013
rhumerus 2.38024 -12.3924 2.16646
rradius 29.3855
rwrist -11.7971
rhand 28.9967 -14.6223
rfingers 7.12502
rthumb 52.8027 -34.2387
lclavicle 8.74653e-015 -1.39944e-013
lhumerus 15.9518 -19.2387 39.2535
lradius 47.747
lwrist -9.39501
lhand -67.6648 -30.3115
lfingers 7.12502
lthumb -39.4135 355.089
rfemur -37.5024 -12.768 30.5866
rtibia 53.1325
rfoot -17.2717 -10.393
rtoes 11.1178
lfemur -25.6721 26.9236 -13.694
ltibia 60.638
lfoot -0.307484 -2.57321
ltoes -29.138
2152
root 3.4921 15.0588 11.2695 -173.92 -30.9908 -180.859
lowerback 7.76573 1.21523 -7.6179
upperback -7.33321 -1.129 -7.7116
thorax -12.5581 -0.677496 -3.94489
lowerneck -21.1147 5.77594 4.30223
upperneck 22.2974 2.23718 13.4262
head 10.6941 2.76587 4.45703
rclavicle 1.47101e-014 3.49861e-014
rhumerus 2.08604 -11.9876 2.18687
rradius 29.6458
rwrist -12.202
rhand 29.4278 -14.4805
rfingers 7.12502
rthumb 53.1918 -33.8507
lclavicle 1.47101e-014 3.49861e-014
lhumerus 16.1643 -19.5435 39.2347
lradius 47.8339
lwrist -8.45989
lhand -67.5474 -31.9993
lfingers 7.12502
lthumb -39.3029 353.433
rfemur -37.2724 -12.5643 30.9095
rtibia 50.1067
rfoot -17.2339 -10.9588
rtoes 13.7901
lfemur -25.3563 27.0581 -13.2096
ltibia 60.9486
lfoot 0.276956 -2.55042
ltoes -28.6221
2153
root 3.47356 15.0584 11.1982 -174.118 -30.331 -180.784
lowerback 7.75409 1.13607 -7.57128
upperback -7.25581 -1.22645 -7.736
thorax -12.4625 -0.732394 -3.97405
lowerneck -21.0961 5.87672 4.40989
upperneck 22.2947 2.34946 13.3797
head 10.6863 2.81751 4.43755
rclavicle 2.8625e-014 -2.22639e-014
rhumerus 2.11535 -11.6367 2.05506
rradius 29.7336
rwrist -12.577
rhand 29.8035 -14.5672
rfingers 7.12502
rthumb 53.5302 -33.7179
lclavicle 2.8625e-014 -2.22639e-014
lhumerus 16.2705 -19.7661 39.102
lradius 47.9823
lwrist -7.65321
lhand -67.3818 -31.1854
lfingers 7.12502
lthumb -39.1468 354.292
rfemur -36.9933 -12.3146 31.0719
rtibia 47.4566
rfoot -17.1889 -12.2518
rtoes 18.6566
lfemur -24.9681 27.2741 -12.7615
ltibia 61.3287
lfoot 0.884201 -2.65401
ltoes -27.7931
2154
root 3.45953 15.0502 11.1246 -174.342 -29.6718 -180.619
lowerback 7.72408 1.12493 -7.47178
upperback -7.19919 -1.21867 -7.74542
thorax -12.3772 -0.73908 -4.03672
lowerneck -20.9953 5.81948 4.31913
upperneck 22.1877 2.30756 13.4195
head 10.6269 2.7855 4.44951
rclavicle -6.87795e-014 -2.03555e-013
rhumerus 2.08758 -11.3482 2.04993
rradius 29.709
rwrist -12.8206
rhand 30.297 -14.6325
rfingers 7.12502
rthumb 53.9738 -33.4883
lclavicle -6.87795e-014 -2.03555e-013
lhumerus 16.3149 -19.7369 39.6544
lradius 47.963
lwrist -7.50503
lhand -67.2068 -29.4366
lfingers 7.12502
lthumb -38.9818 356.089
rfemur -36.9747 -12.3218 31.5321
rtibia 45.6131
rfoot -15.206 -14.3619
rtoes 18.8075
lfemur -24.7087 27.5775 -12.1797
ltibia 61.8716
lfoot 1.59545 -2.92774
ltoes -27.1095
2155
root 3.4501 15.0478 11.0524 -174.661 -29.0702 -180.257
lowerback 7.64539 1.08502 -7.05468
upperback -7.09751 -1.19241 -7.79249
thorax -12.2088 -0.764531 -4.31831
lowerneck -20.9933 5.76857 4.37022
upperneck 22.1445 2.23163 13.3656
head 10.6173 2.74397 4.40742
rclavicle 1.13705e-013 -4.45278e-014
rhumerus 1.74465 -11.2907 1.99372
rradius 29.8249
rwrist -12.9055
rhand 30.7149 -14.7481
rfingers 7.12502
rthumb 54.3485 -33.3477
lclavicle 1.13705e-013 -4.45278e-014
lhumerus 16.5763 -20.0813 39.6854
lradius 48.0692
lwrist -6.74536
lhand -66.9168 -25.8907
lfingers 7.12502
lthumb -38.7083 359.712
rfemur -36.9584 -12.5602 32.2829
rtibia 44.8986
rfoot -12.986 -15.3331
rtoes 23.9946
lfemur -24.5668 27.8265 -11.3774
ltibia 62.5293
lfoot 2.50192 -3.25245
ltoes -25.8193
2156
root 3.43803 15.028 10.981 -174.922 -28.4932 -180.031
lowerback 7.62465 1.01125 -6.81275
upperback -7.0583 -1.24618 -7.77569
thorax -12.1499 -0.808512 -4.42176
lowerneck -20.8674 5.76707 4.26031
upperneck 22.1395 2.26728 13.3923
head 10.5851 2.74713 4.43346
rclavicle 6.36111e-015 -3.18055e-014
rhumerus 2.08099 -11.1954 1.86959
rradius 29.6045
rwrist -12.8504
rhand 31.0827 -14.9844
rfingers 7.12502
rthumb 54.6776 -33.3537
lclavicle 6.36111e-015 -3.18055e-014
lhumerus 16.6275 -20.3597 39.9194
lradius 48.0967
lwrist -6.06979
lhand -66.7443 -25.7692
lfingers 7.12502
lthumb -38.5457 359.879
rfemur -36.6192 -12.6374 32.7574
rtibia 45.132
rfoot -13.8155 -14.6484
rtoes 27.0954
lfemur -24.5682 28.0678 -10.6661
ltibia 63.4458
lfoot 3.53086 -3.6676
ltoes -24.2817
2157
root 3.42339 15.0038 10.9062 -175.171 -27.9216 -180.051
lowerback 7.64935 0.981575 -6.77444
upperback -6.9858 -1.2801 -7.79546
thorax -12.0827 -0.830321 -4.45507
lowerneck -20.7479 5.69769 4.18884
upperneck 22.2255 2.23439 13.2442
head 10.593 2.707 4.38457
rclavicle 7.07673e-014 -4.77083e-014
rhumerus 1.94993 -11.053 1.99713
rradius 29.6475
rwrist -12.8526
rhand 31.3259 -15.1987
rfingers 7.12502
rthumb 54.8949 -33.4131
lclavicle 7.07673e-014 -4.77083e-014
lhumerus 16.6526 -20.9009 40.1837
lradius 48.2088
lwrist -4.92529
lhand -66.7286 -22.229
lfingers 7.12502
lthumb -38.5308 363.424
rfemur -36.2891 -12.4329 32.8095
rtibia 45.8183
rfoot -14.4056 -13.9038
rtoes 27.698
lfemur -24.4923 28.2017 -10.1131
ltibia 64.4993
lfoot 4.65378 -4.12324
ltoes -22.442
2158
root 3.41146 14.9653 10.8307 -175.491 -27.4379 -179.913
lowerback 7.6966 1.01086 -6.6065
upperback -6.87642 -1.21086 -7.83794
thorax -11.984 -0.812506 -4.60404
lowerneck -20.962 5.59838 4.18118
upperneck 22.4453 2.07618 13.1295
head 10.7248 2.63322 4.34158
rclavicle -6.75868e-015 -5.08889e-014
rhumerus 2.07744 -11.2755 2.03228
rradius 29.2706
rwrist -12.48
rhand 31.4951 -15.5552
rfingers 7.12502
rthumb 55.0459 -33.6607
lclavicle -6.75868e-015 -5.08889e-014
lhumerus 16.9984 -21.1977 40.6046
lradius 48.122
lwrist -4.83836
lhand -66.7073 -24.5704
lfingers 7.12502
lthumb -38.5108 361.088
rfemur -35.8363 -11.9016 32.8432
rtibia 46.5192
rfoot -15.3329 -13.6298
rtoes 27.0362
lfemur -24.5939 28.2804 -9.33976
ltibia 65.7511
lfoot 5.88287 -4.77516
ltoes -22.2469
2159
root 3.3979 14.9235 10.7554 -175.76 -26.9581 -179.96
lowerback 7.75602 0.937854 -6.55108
upperback -6.80961 -1.31318 -7.88268
thorax -11.9493 -0.871364 -4.66368
lowerneck -20.8353 5.62526 4.15665
upperneck 22.6201 2.11961 13.0665
head 10.7613 2.64129 4.33171
rclavicle -6.83819e-014 -2.54444e-014
rhumerus 2.07119 -11.4498 1.97661
rradius 29.2506
rwrist -12.0953
rhand 31.6379 -15.6037
rfingers 7.12502
rthumb 55.1732 -33.6163
lclavicle -6.83819e-014 -2.54444e-014
lhumerus 17.106 -21.5823 40.7544
lradius 48.0659
lwrist -4.61081
lhand -66.8348 -25.7335
lfingers 7.12502
lthumb -38.6311 359.891
rfemur -35.1488 -11.4875 32.6525
rtibia 46.9785
rfoot -16.3586 -12.8301
rtoes 27.3298
lfemur -24.7197 28.3027 -8.70908
ltibia 67.0312
lfoot 7.21281 -5.46161
ltoes -21.2169
2160
root 3.38822 14.8946 10.6787 -176.047 -26.4371 -179.981
lowerback 7.87435 0.841609 -6.51981
upperback -6.7639 -1.45243 -7.88585
thorax -11.9748 -0.941762 -4.65922
lowerneck -20.776 5.68913 4.31977
upperneck 22.8709 2.18606 12.825
head 10.8444 2.66048 4.23624
rclavicle -7.63333e-014 6.36111e-014
rhumerus 2.56585 -11.6539 1.81434
rradius 28.9357
rwrist -11.6318
rhand 31.6069 -15.686
rfingers 7.12502
rthumb 55.1455 -33.7188
lclavicle -7.63333e-014 6.36111e-014
lhumerus 17.026 -21.7703 41.1192
lradius 48.0276
lwrist -4.55555
lhand -66.8035 -26.2729
lfingers 7.12502
lthumb -38.6015 359.36
rfemur -34.479 -11.5522 32.6747
rtibia 47.2986
rfoot -17.0784 -11.7456
rtoes 27.8502
lfemur -24.7953 28.3003 -8.00847
ltibia 68.2576
lfoot 8.36587 -6.49034
ltoes -21.2494
